<svg width="303" height="139" viewBox="0 0 303 139" fill="none" xmlns="http://www.w3.org/2000/svg">
<line x1="34.84" y1="2.5" x2="103.627" y2="2.5" stroke="white" stroke-width="5"/>
<line y1="15.0067" x2="68.7867" y2="15.0067" stroke="white" stroke-width="5"/>
<circle cx="135.787" cy="72" r="67" fill="#FF6C6C"/>
<line x1="34.84" y1="28.4067" x2="103.627" y2="28.4067" stroke="white" stroke-width="5"/>
<path d="M91.7424 87.1752C86.7824 87.1752 83.1344 85.9112 80.7984 83.3832C78.4944 80.8552 77.3424 77.5272 77.3424 73.3992C77.3424 69.2392 78.0464 65.4632 79.4544 62.0712C80.8944 58.6472 83.0224 55.8472 85.8384 53.6712C88.6544 51.4632 91.6944 50.3592 94.9584 50.3592C98.2544 50.3592 100.83 51.1592 102.686 52.7592C104.574 54.3272 105.518 56.4552 105.518 59.1432C105.518 61.7992 104.686 64.0072 103.022 65.7672C101.39 67.5272 99.4704 68.4072 97.2624 68.4072C95.0544 68.4072 93.3424 67.9272 92.1264 66.9672C90.9104 65.9752 90.3024 64.9352 90.3024 63.8472C90.3024 62.7272 90.7344 61.8632 91.5984 61.2552C92.4944 60.6152 93.7904 60.2952 95.4864 60.2952C95.0704 60.7112 94.8624 61.2712 94.8624 61.9752C94.8624 62.6472 95.0704 63.2392 95.4864 63.7512C95.9024 64.2632 96.5424 64.5192 97.4064 64.5192C98.2704 64.5192 99.1344 64.0712 99.9984 63.1752C100.862 62.2472 101.294 61.0312 101.294 59.5272C101.294 58.0232 100.83 56.8232 99.9024 55.9272C99.0064 55.0312 97.7264 54.5832 96.0624 54.5832C93.8864 54.5832 91.9024 55.4632 90.1104 57.2232C88.3504 58.9832 87.0064 61.2232 86.0784 63.9432C85.1504 66.6632 84.6864 69.5272 84.6864 72.5352C84.6864 75.1272 85.2464 77.4152 86.3664 79.3992C86.9424 80.4232 87.7904 81.2392 88.9104 81.8472C90.0624 82.4552 91.4064 82.7592 92.9424 82.7592C95.5664 82.7592 98.0944 81.9272 100.526 80.2632C102.958 78.5672 105.006 76.3912 106.67 73.7352L108.302 76.6632C106.414 79.7352 104.046 82.2632 101.198 84.2472C98.3504 86.1992 95.1984 87.1752 91.7424 87.1752ZM126.456 87.1272C123.512 87.1272 121.56 86.1032 120.6 84.0552C118.936 86.1352 116.792 87.1752 114.168 87.1752C111.576 87.1752 109.384 86.2952 107.592 84.5352C105.832 82.7752 104.952 80.4552 104.952 77.5752C104.952 73.3832 106.184 70.0392 108.648 67.5432C111.112 65.0472 114.232 63.7992 118.008 63.7992C118.104 63.7992 118.2 63.7992 118.296 63.7992C119.896 63.7992 121.368 64.0712 122.712 64.6152C123.576 64.0712 124.616 63.7992 125.832 63.7992C127.08 63.7992 127.976 63.9592 128.52 64.2792C128.232 66.6472 127.928 68.9832 127.608 71.2872C127.288 73.5592 127.064 75.1752 126.936 76.1352C126.648 78.3112 126.504 79.8792 126.504 80.8392C126.504 82.1192 127.016 82.7592 128.04 82.7592C128.84 82.7592 129.688 82.2312 130.584 81.1752C131.48 80.0872 132.264 78.3912 132.936 76.0872C133.864 76.9192 134.504 77.8472 134.856 78.8712C133.928 81.9112 132.68 84.0552 131.112 85.3032C129.544 86.5192 127.992 87.1272 126.456 87.1272ZM118.728 67.5432C116.68 67.5432 115.048 68.3272 113.832 69.8952C112.648 71.4312 111.944 73.7352 111.72 76.8072C111.688 77.0952 111.672 77.3672 111.672 77.6232C111.672 79.1912 112.04 80.4392 112.776 81.3672C113.544 82.2952 114.52 82.7592 115.704 82.7592C117.72 82.7592 119.24 81.3352 120.264 78.4872L121.416 68.1192C120.488 67.7352 119.592 67.5432 118.728 67.5432ZM136.673 63.7512C138.753 63.7512 139.969 64.2792 140.321 65.3352C141.825 64.2792 143.729 63.7512 146.033 63.7512C148.337 63.7512 150.321 64.6952 151.985 66.5832C153.649 68.4712 154.481 70.6792 154.481 73.2072C154.481 73.5592 154.465 73.9272 154.433 74.3112C154.081 78.5032 152.673 81.7032 150.209 83.9112C147.745 86.0872 144.529 87.1752 140.561 87.1752C139.665 87.1752 138.689 87.0632 137.633 86.8392L136.097 100.039H129.809C131.857 82.4072 133.233 70.4392 133.937 64.1352C134.609 63.8792 135.521 63.7512 136.673 63.7512ZM147.713 73.5432C147.713 72.1352 147.393 70.8872 146.753 69.7992C146.113 68.7112 145.121 68.1672 143.777 68.1672C141.953 68.1672 140.561 69.3512 139.601 71.7192C138.961 76.4552 138.593 79.2072 138.497 79.9752C138.465 80.9352 138.769 81.6552 139.409 82.1352C140.049 82.6152 140.833 82.8552 141.761 82.8552C143.393 82.8552 144.737 82.1192 145.793 80.6472C147.073 78.8232 147.713 76.4552 147.713 73.5432ZM191.071 76.5672L192.607 78.9192C191.039 84.4232 187.791 87.1752 182.863 87.1752C181.743 87.1752 180.767 86.9672 179.935 86.5512C179.135 86.1352 178.527 85.6392 178.111 85.0632C177.695 84.4872 177.359 83.7512 177.103 82.8552C176.751 81.5112 176.559 79.7352 176.527 77.5272C176.527 75.3192 176.255 73.7992 175.711 72.9672C175.199 72.1352 174.207 71.6712 172.735 71.5752L173.263 67.4952C173.327 67.4952 173.375 67.4952 173.407 67.4952C175.263 67.4952 176.799 66.9672 178.015 65.9112C179.327 64.7272 179.983 63.2072 179.983 61.3512C179.983 59.4952 179.103 57.9272 177.343 56.6472C175.615 55.3672 173.375 54.7272 170.623 54.7272C167.071 54.7272 164.335 55.6072 162.415 57.3672C161.391 58.3272 160.879 59.4792 160.879 60.8232C160.879 62.5192 162.175 63.5432 164.767 63.8952L164.095 67.4952C162.143 67.3992 160.415 66.7432 158.911 65.5272C157.407 64.3112 156.655 62.7432 156.655 60.8232C156.655 57.4632 158.063 54.8872 160.879 53.0952C163.695 51.2712 167.263 50.3592 171.583 50.3592C174.367 50.3592 176.815 50.6952 178.927 51.3672C182.543 52.5832 184.943 54.6952 186.127 57.7032C186.511 58.7592 186.703 59.6232 186.703 60.2952C186.703 60.9352 186.703 61.3672 186.703 61.5912C186.575 63.3512 185.919 65.0792 184.735 66.7752C183.583 68.4712 181.839 69.6392 179.503 70.2792C180.911 70.5672 181.871 71.1752 182.383 72.1032C182.895 73.0312 183.167 74.4392 183.199 76.3272C183.231 79.5592 183.375 81.5272 183.631 82.2312C183.919 82.9032 184.495 83.2392 185.359 83.2392C187.695 83.2392 189.599 81.0152 191.071 76.5672ZM161.647 87.1752C159.951 87.1752 158.591 86.6632 157.567 85.6392C156.543 84.6152 156.031 83.3512 156.031 81.8472C156.031 77.9432 158.895 74.6792 164.623 72.0552C165.775 63.0952 166.367 58.5032 166.399 58.2792C167.743 57.4152 169.263 56.9832 170.959 56.9832C171.663 56.9832 172.463 57.0792 173.359 57.2712L170.335 77.7672C169.375 84.0392 166.479 87.1752 161.647 87.1752ZM159.583 81.2712C159.583 82.2952 160.127 82.8072 161.215 82.8072C162.495 82.8072 163.311 81.6552 163.663 79.3512L164.095 76.0872C161.087 77.8472 159.583 79.5752 159.583 81.2712ZM197.836 76.1352C199.82 75.7192 201.292 74.9192 202.252 73.7352C203.244 72.5512 203.74 71.4152 203.74 70.3272C203.74 69.2072 203.436 68.4552 202.828 68.0712C202.252 67.6552 201.612 67.4472 200.908 67.4472C199.404 67.4472 198.076 68.2952 196.924 69.9912C195.804 71.6552 195.244 73.6552 195.244 75.9912C195.244 78.2952 195.788 80.0232 196.876 81.1752C197.996 82.2952 199.372 82.8552 201.004 82.8552C203.404 82.8552 205.708 82.0232 207.916 80.3592C210.124 78.6952 211.916 76.5192 213.292 73.8312C213.996 74.5032 214.636 75.3352 215.212 76.3272C214.156 78.7272 212.284 81.0792 209.596 83.3832C208.252 84.5032 206.652 85.4152 204.796 86.1192C202.972 86.8232 201.084 87.1752 199.132 87.1752C195.932 87.1752 193.404 86.1992 191.548 84.2472C189.564 82.1352 188.572 79.4312 188.572 76.1352C188.572 72.8392 189.804 69.9592 192.268 67.4952C194.764 65.0312 197.74 63.7992 201.196 63.7992C203.66 63.7992 205.66 64.3432 207.196 65.4312C208.732 66.4872 209.516 67.9272 209.548 69.7512C209.548 72.2152 208.556 74.2152 206.572 75.7512C204.62 77.2872 201.932 78.3592 198.508 78.9672L197.836 76.1352ZM231.332 72.1992C233.86 74.0552 235.124 76.2472 235.124 78.7752C235.124 81.3032 234.132 83.3352 232.148 84.8712C230.164 86.4072 227.668 87.1752 224.66 87.1752C222.708 87.1752 221.076 86.6952 219.764 85.7352C218.484 84.7432 217.844 83.5272 217.844 82.0872C217.844 80.6472 218.324 79.5112 219.284 78.6792C220.244 77.8152 221.444 77.2872 222.884 77.0952C222.212 78.0552 221.876 78.9832 221.876 79.8792C221.876 80.7432 222.18 81.4472 222.788 81.9912C223.396 82.5352 224.164 82.8072 225.092 82.8072C226.02 82.8072 226.788 82.4712 227.396 81.7992C228.004 81.0952 228.308 80.2952 228.308 79.3992C228.308 77.9272 227.62 76.6152 226.244 75.4632C225.412 74.7912 224.516 74.1672 223.556 73.5912C222.596 72.9832 222.084 72.6632 222.02 72.6312C221.892 72.5352 221.764 72.4552 221.636 72.3912C221.06 73.0632 220.228 73.9912 219.14 75.1752C218.052 76.3272 217.188 77.2552 216.548 77.9592C214.756 79.9112 213.748 81.5432 213.524 82.8552C213.46 83.1112 213.428 83.6072 213.428 84.3432C213.428 85.0472 213.636 85.7832 214.052 86.5512C214.5 87.3192 215.028 87.8952 215.636 88.2792C216.244 88.6632 216.836 88.9672 217.412 89.1912C218.02 89.4472 218.532 89.6232 218.948 89.7192C219.396 89.8152 219.62 89.8792 219.62 89.9112C219.62 90.1352 219.268 90.3912 218.564 90.6792C217.252 91.1592 215.876 91.3992 214.436 91.3992C213.028 91.3992 211.652 90.8872 210.308 89.8632C208.484 88.4552 207.572 86.5832 207.572 84.2472C207.572 82.8072 207.94 81.3832 208.676 79.9752C209.988 77.4792 213.06 74.0552 217.892 69.7032C216.708 68.5192 216.116 67.2552 216.116 65.9112C216.116 64.5672 216.612 63.4312 217.604 62.5032C218.628 61.5752 219.828 61.1112 221.204 61.1112C222.452 61.1112 223.54 61.6072 224.468 62.5992C225.076 63.2712 225.38 64.1192 225.38 65.1432C225.38 66.1672 225.044 67.3192 224.372 68.5992C227.796 70.1352 230.116 71.3352 231.332 72.1992ZM220.916 66.7752C221.684 65.9752 222.068 65.3992 222.068 65.0472C222.068 64.2472 221.716 63.8152 221.012 63.7512C220.212 63.7512 219.812 64.1992 219.812 65.0952C219.812 65.6392 220.18 66.1992 220.916 66.7752Z" fill="white"/>
</svg>
